<svg width="18" height="15" viewBox="0 0 18 15" fill="none" xmlns="http://www.w3.org/2000/svg">
<path d="M8.50219 1.30769C9.43135 0.480281 10.6852 0.0110192 11.9957 0.000191598C13.3062 -0.010636 14.5695 0.437829 15.5155 1.24975C16.4616 2.06167 17.0154 3.17264 17.0586 4.34525C17.1018 5.51786 16.631 6.65909 15.7468 7.52506L15.5887 7.6726L8.22696 14.2614L8.19685 14.2839C7.62369 14.7459 6.87944 15.001 6.1082 15C5.33695 14.999 4.59357 14.7418 4.02197 14.2783C3.45037 13.8147 3.0912 13.1779 3.01402 12.4909C2.93683 11.8039 3.14711 11.1158 3.60414 10.5596C3.62406 10.5251 3.64789 10.4924 3.67525 10.4623L3.72042 10.4173L3.7932 10.3514L3.91116 10.2406L3.91367 10.2428L10.1343 4.66052C10.2404 4.56529 10.3812 4.50731 10.5311 4.49714C10.6809 4.48697 10.8298 4.52528 10.9508 4.6051L11.0211 4.65977C11.1275 4.75478 11.1922 4.88081 11.2036 5.01495C11.2149 5.14909 11.1721 5.28242 11.083 5.3907L11.0227 5.45361L4.66908 11.155C4.37501 11.478 4.22645 11.8877 4.25255 12.3037C4.27866 12.7198 4.47754 13.112 4.81016 13.4035C5.14278 13.695 5.5851 13.8646 6.05028 13.8791C6.51545 13.8936 6.96987 13.7519 7.32432 13.4818L14.7136 6.86903C15.3983 6.24559 15.7857 5.40843 15.7941 4.53418C15.8025 3.65992 15.4312 2.81694 14.7585 2.18309C14.0858 1.54925 13.1644 1.1741 12.1887 1.13681C11.213 1.09951 10.2592 1.40299 9.52865 1.9832L9.38811 2.10303L9.37807 2.11351L1.39981 9.25503C1.28785 9.35552 1.13755 9.41435 0.979122 9.41969C0.820692 9.42502 0.66588 9.37646 0.545813 9.28377C0.425745 9.19109 0.349326 9.06115 0.33192 8.92007C0.314513 8.779 0.35741 8.63726 0.451986 8.52335L0.513054 8.46044L8.50135 1.30844L8.50219 1.30769Z" fill="#001915"/>
</svg>
