<svg width="15" height="15" viewBox="0 0 15 15" fill="none" xmlns="http://www.w3.org/2000/svg">
<path fill-rule="evenodd" clip-rule="evenodd" d="M7.5 15C11.6421 15 15 11.6421 15 7.5C15 3.35786 11.6421 0 7.5 0C3.35786 0 0 3.35786 0 7.5C0 11.6421 3.35786 15 7.5 15ZM10.001 5.50139C10.001 5.36881 9.94837 5.24166 9.85463 5.14789C9.80819 5.10133 9.75301 5.06339 9.69226 5.03818C9.63152 5.01297 9.5664 5 9.50063 5C9.43486 5 9.36974 5.01297 9.309 5.03818C9.24825 5.06339 9.19308 5.10033 9.14663 5.14689L7.50063 6.79389L5.85463 5.14689C5.76075 5.05301 5.63341 5.00026 5.50063 5.00026C5.36786 5.00026 5.24052 5.05301 5.14663 5.14689C5.05274 5.24078 5 5.36812 5 5.50089C5 5.63367 5.05274 5.76101 5.14663 5.85489L6.79363 7.50089L5.14663 9.14689C5.10014 9.19338 5.06327 9.24857 5.03811 9.30931C5.01295 9.37005 5 9.43515 5 9.50089C5 9.56664 5.01295 9.63174 5.03811 9.69248C5.06327 9.75322 5.10014 9.80841 5.14663 9.85489C5.19312 9.90138 5.24831 9.93826 5.30905 9.96342C5.36979 9.98858 5.43489 10.0015 5.50063 10.0015C5.56638 10.0015 5.63148 9.98858 5.69222 9.96342C5.75295 9.93826 5.80814 9.90138 5.85463 9.85489L7.50063 8.20789L9.14663 9.85489C9.24052 9.94878 9.36786 10.0015 9.50063 10.0015C9.63341 10.0015 9.76075 9.94878 9.85463 9.85489C9.94852 9.76101 10.0013 9.63367 10.0013 9.50089C10.0013 9.36812 9.94852 9.24078 9.85463 9.14689L8.20763 7.50089L9.85463 5.85489C9.94837 5.76113 10.001 5.63398 10.001 5.50139Z" fill="#F44336"/>
</svg>
