<svg width="20" height="23" viewBox="0 0 20 23" fill="none" xmlns="http://www.w3.org/2000/svg">
<path d="M13.3333 3.69063H16.6667L15 5.89062L13.3333 3.69063ZM2.22222 0.390625H17.7778C19.0111 0.390625 20 1.38063 20 2.59063V20.1906C20 21.4116 19.0111 22.3906 17.7778 22.3906H2.22222C1 22.3906 0 21.4116 0 20.1906V2.59063C0 1.38063 1 0.390625 2.22222 0.390625ZM2.22222 2.59063V6.99063H17.7778V2.59063H2.22222ZM2.22222 20.1906H17.7778V9.19063H2.22222V20.1906ZM4.44444 11.3906H15.5556V13.5906H4.44444V11.3906ZM4.44444 15.7906H15.5556V17.9906H4.44444V15.7906Z" fill="#F5F7FF"/>
</svg>
