<svg width="18" height="22" viewBox="0 0 18 22" fill="none" xmlns="http://www.w3.org/2000/svg">
<path d="M8.9011 0.308594C11.2618 0.308594 13.5258 1.24639 15.1951 2.91567C16.8644 4.58495 17.8022 6.84897 17.8022 9.20969C17.8022 12.8947 14.9934 16.7558 9.4945 20.88C9.32331 21.0084 9.11509 21.0778 8.9011 21.0778C8.68711 21.0778 8.47889 21.0084 8.30769 20.88C2.80879 16.7558 0 12.8947 0 9.20969C0 6.84897 0.937791 4.58495 2.60707 2.91567C4.27635 1.24639 6.54038 0.308594 8.9011 0.308594ZM8.9011 6.24266C8.11419 6.24266 7.35952 6.55526 6.80309 7.11168C6.24666 7.66811 5.93407 8.42279 5.93407 9.20969C5.93407 9.9966 6.24666 10.7513 6.80309 11.3077C7.35952 11.8641 8.11419 12.1767 8.9011 12.1767C9.688 12.1767 10.4427 11.8641 10.9991 11.3077C11.5555 10.7513 11.8681 9.9966 11.8681 9.20969C11.8681 8.42279 11.5555 7.66811 10.9991 7.11168C10.4427 6.55526 9.688 6.24266 8.9011 6.24266Z" fill="#37474F"/>
</svg>
