<svg width="14" height="14" viewBox="0 0 14 14" xmlns="http://www.w3.org/2000/svg">
<path d="M9.72222 0.777778C9.72222 1.71111 9.56667 2.72222 9.25556 3.57778C9.25556 3.65556 9.25556 3.73333 9.25556 3.81111C9.25556 4.04444 9.33333 4.2 9.48889 4.35556L11.2 6.06667C10.0333 8.24444 8.24444 10.1111 6.06667 11.2L4.35556 9.48889C4.12222 9.25556 3.81111 9.17778 3.57778 9.33333C2.72222 9.56667 1.71111 9.72222 0.777778 9.72222C0.388889 9.72222 4.63745e-08 10.1111 4.17371e-08 10.5L9.27491e-09 13.2222C4.63745e-09 13.6111 0.388889 14 0.777778 14C8.08889 14 14 8.08889 14 0.777778C14 0.388889 13.6111 1.62311e-07 13.2222 1.57673e-07L10.5 1.25211e-07C10.1111 1.20574e-07 9.72222 0.388888 9.72222 0.777778ZM1.55556 12.4444L1.55556 11.2778C2.25556 11.2 2.95556 11.0444 3.57778 10.8889L4.51111 11.8222C3.57778 12.1333 2.56667 12.3667 1.55556 12.4444ZM12.4444 1.55556C12.3667 2.56667 12.1333 3.57778 11.8222 4.51111L10.8889 3.57778C11.0444 2.95556 11.2 2.25556 11.2 1.55556L12.4444 1.55556Z"/>
</svg>
