<svg width="123" height="86" viewBox="0 0 123 86" xmlns="http://www.w3.org/2000/svg">
<path d="M35.4479 41.297L50.3958 60.4555C50.1111 67.2673 47.2639 73.2277 41.8542 78.3366C36.4444 83.4455 30.1806 86 23.0625 86C15.9444 86 10.3212 83.5875 6.19271 78.7624C2.06424 73.9373 0 68.1898 0 61.5198C0 46.7607 4.98264 33.7046 14.9479 22.3515C24.9132 10.8564 38.224 3.40594 54.8802 0L58.0833 9.36634C51.3924 12.4884 45.9115 17.2426 41.6406 23.6287C37.5122 29.8729 35.4479 35.7624 35.4479 41.297ZM100.365 41.297L115.312 60.4555C115.028 67.2673 112.181 73.2277 106.771 78.3366C101.361 83.4455 95.0972 86 87.9792 86C80.8611 86 75.2378 83.5875 71.1094 78.7624C66.9809 73.9373 64.9167 68.1898 64.9167 61.5198C64.9167 46.7607 69.8993 33.7046 79.8646 22.3515C89.8299 10.8564 103.141 3.40594 119.797 0L123 9.36634C116.309 12.4884 110.828 17.2426 106.557 23.6287C102.429 29.8729 100.365 35.7624 100.365 41.297Z"/>
</svg>
