<svg width="17" height="13" viewBox="0 0 17 13" xmlns="http://www.w3.org/2000/svg">
<path d="M1.61461 5.97427L1.60723 5.9771C1.2758 6.10433 1.05504 6.21874 0.922279 6.31392C0.908037 6.32413 0.895561 6.33356 0.884654 6.34221C0.906927 6.35503 0.934937 6.36975 0.969903 6.3861C1.15582 6.47304 1.39893 6.54692 1.71618 6.64334C1.82623 6.67679 1.9452 6.71294 2.0738 6.7533C2.44324 6.86922 2.87303 6.99389 3.27165 7.09038C3.68146 7.18958 4.02032 7.24938 4.22471 7.25364C4.56208 7.26067 4.9942 7.12605 5.53576 6.76707L5.53903 6.7649L5.53904 6.76491C7.54584 5.45723 9.06855 4.47202 10.1064 3.80984C10.6249 3.47896 11.0245 3.22746 11.3035 3.05632C11.4426 2.97104 11.5549 2.90371 11.6386 2.85592C11.6799 2.83228 11.7186 2.81091 11.7521 2.7938C11.7528 2.79347 11.7536 2.79303 11.7547 2.79249C11.7719 2.78356 11.8419 2.74726 11.9195 2.73028L11.9237 2.72935C11.9691 2.71938 12.0715 2.69686 12.1849 2.69772C12.3074 2.69864 12.4928 2.72676 12.6571 2.86776L12.3315 3.24723L12.6571 2.86777C12.8262 3.01288 12.8787 3.19982 12.8957 3.31073C12.9125 3.42036 12.9068 3.53079 12.8859 3.61674L1.61461 5.97427ZM1.61461 5.97427L1.62189 5.97121M1.61461 5.97427L1.62189 5.97121M1.62189 5.97121C5.91749 4.16457 8.7777 2.97529 10.2063 2.40169M1.62189 5.97121L10.2063 2.40169M10.2063 2.40169C12.2538 1.57958 13.4788 1.10181 14.2597 0.828268M10.2063 2.40169L14.2597 0.828268M14.2597 0.828268C15.0487 0.551873 15.334 0.503263 15.5243 0.500028M14.2597 0.828268L15.5243 0.500028M15.5243 0.500028C15.5472 0.499638 15.6051 0.502763 15.6684 0.51736M15.5243 0.500028L15.6684 0.51736M15.6684 0.51736C15.7353 0.532788 15.7695 0.552099 15.7784 0.559073M15.6684 0.51736L15.7784 0.559073M15.7784 0.559073C15.7809 0.561039 15.7817 0.56208 15.782 0.56249M15.7784 0.559073L15.782 0.56249M15.782 0.56249C15.7825 0.563139 15.784 0.56521 15.7861 0.569926M15.782 0.56249L15.7861 0.569926M15.7861 0.569926C15.7913 0.581153 15.7973 0.599991 15.8041 0.637893M15.7861 0.569926L15.8041 0.637893M15.8041 0.637893C15.8098 0.670534 15.819 0.741689 15.8242 0.828332M15.8041 0.637893L15.8242 0.828332M15.8242 0.828332C15.8295 0.915535 15.8296 0.999047 15.8234 1.06144M15.8242 0.828332L15.8234 1.06144M15.8234 1.06144C15.6043 3.28397 14.6494 8.71982 14.161 11.2404M15.8234 1.06144L14.161 11.2404M14.161 11.2404C13.9659 12.2469 13.6443 12.2917 13.6007 12.2956M14.161 11.2404L13.6007 12.2956M13.6007 12.2956C13.3152 12.321 13.0437 12.2354 12.7146 12.0488M13.6007 12.2956L12.7146 12.0488M12.7146 12.0488C12.5484 11.9545 12.3781 11.8407 12.1878 11.7102M12.7146 12.0488L12.1878 11.7102M12.1878 11.7102C12.1572 11.6892 12.126 11.6678 12.0943 11.6459M12.1878 11.7102L12.0943 11.6459M12.0943 11.6459C11.9338 11.5355 11.7598 11.4157 11.5784 11.301M12.0943 11.6459L11.5784 11.301M11.5784 11.301C10.934 10.8931 10.4297 10.5623 9.92749 10.2322M11.5784 11.301L9.92749 10.2322M9.92749 10.2322L9.8606 10.1882M9.92749 10.2322L9.8606 10.1882M9.8606 10.1882C9.38054 9.87265 8.89637 9.55436 8.29153 9.16959M9.8606 10.1882L8.29153 9.16959M8.29153 9.16959C7.95281 8.95412 7.82486 8.80488 7.78229 8.72618M8.29153 9.16959L7.78229 8.72618M7.78229 8.72618C7.76091 8.68666 7.75998 8.67603 7.78069 8.63046M7.78229 8.72618L7.78069 8.63046M7.78069 8.63046C7.81806 8.54821 7.90827 8.4331 8.087 8.25753M7.78069 8.63046L8.087 8.25753M8.087 8.25753C8.16252 8.18336 8.2442 8.10733 8.3348 8.02301M8.087 8.25753L8.3348 8.02301M8.3348 8.02301C8.34637 8.01225 8.35809 8.00134 8.36996 7.99029M8.3348 8.02301L8.36996 7.99029M8.36996 7.99029C8.47247 7.89481 8.58379 7.79048 8.6945 7.67948M8.36996 7.99029L8.6945 7.67948M8.6945 7.67948C8.69429 7.6797 8.69563 7.67835 8.69921 7.67492M8.6945 7.67948L8.69921 7.67492M8.69921 7.67492L8.71294 7.66193M8.69921 7.67492L8.71294 7.66193M8.71294 7.66193C8.72462 7.65099 8.73991 7.63685 8.75896 7.61937M8.71294 7.66193L8.75896 7.61937M8.75896 7.61937C8.79705 7.58444 8.84755 7.53862 8.90924 7.48295M8.75896 7.61937L8.90924 7.48295M8.90924 7.48295C9.02053 7.38249 9.16547 7.25241 9.33445 7.10076M8.90924 7.48295L9.33445 7.10076M9.33445 7.10076L9.39003 7.05088M9.33445 7.10076L9.39003 7.05088M9.39003 7.05088C9.77505 6.70532 10.2702 6.26062 10.7611 5.81306M9.39003 7.05088L10.7611 5.81306M10.7611 5.81306C11.2513 5.36618 11.7408 4.91328 12.1135 4.55179M10.7611 5.81306L12.1135 4.55179M12.1135 4.55179C12.2992 4.37174 12.4611 4.20944 12.5809 4.07961M12.1135 4.55179L12.5809 4.07961M12.5809 4.07961C12.6403 4.01537 12.6955 3.95244 12.7398 3.8954M12.5809 4.07961L12.7398 3.8954M12.7398 3.8954C12.7617 3.86708 12.7862 3.83362 12.8084 3.79754M12.7398 3.8954L12.8084 3.79754M12.8084 3.79754C12.8253 3.77015 12.8647 3.70396 12.8859 3.61675L12.8084 3.79754Z" stroke="#2AABEE"/>
</svg>
