<svg width="17" height="16" viewBox="0 0 17 16" xmlns="http://www.w3.org/2000/svg">
<path d="M8.32013 0C3.95212 0 0.392125 3.56 0.392125 7.928C0.392125 9.328 0.760125 10.688 1.44813 11.888L0.328125 16L4.52813 14.896C5.68813 15.528 6.99213 15.864 8.32013 15.864C12.6881 15.864 16.2481 12.304 16.2481 7.936C16.2481 5.816 15.4241 3.824 13.9281 2.328C12.4321 0.824 10.4401 0 8.32013 0ZM8.32812 1.336C10.0881 1.336 11.7361 2.024 12.9841 3.272C14.2241 4.52 14.9121 6.176 14.9121 7.936C14.9121 11.568 11.9521 14.52 8.32013 14.52C7.13613 14.52 5.97613 14.208 4.96813 13.6L4.72813 13.464L2.23212 14.12L2.89613 11.688L2.73612 11.432C2.08012 10.4 1.72812 9.176 1.72812 7.928C1.73612 4.296 4.68813 1.336 8.32812 1.336ZM5.51212 4.264C5.38412 4.264 5.16812 4.312 4.98412 4.512C4.80813 4.712 4.28812 5.2 4.28812 6.168C4.28812 7.144 5.00012 8.08 5.08812 8.216C5.20012 8.352 6.49612 10.352 8.48812 11.2C8.96012 11.416 9.32812 11.536 9.61613 11.624C10.0881 11.776 10.5201 11.752 10.8641 11.704C11.2481 11.648 12.0321 11.224 12.2001 10.76C12.3681 10.296 12.3681 9.904 12.3201 9.816C12.2641 9.736 12.1361 9.688 11.9361 9.6C11.7361 9.488 10.7601 9.008 10.5841 8.944C10.4001 8.88 10.2881 8.848 10.1361 9.04C10.0081 9.24 9.62412 9.688 9.51213 9.816C9.39213 9.952 9.28012 9.968 9.08813 9.872C8.88013 9.768 8.24013 9.56 7.48812 8.888C6.89612 8.36 6.50412 7.712 6.38412 7.512C6.28813 7.32 6.37612 7.2 6.47212 7.112C6.56012 7.024 6.68813 6.88 6.76813 6.76C6.87213 6.648 6.90413 6.56 6.96813 6.432C7.03213 6.296 7.00012 6.184 6.95213 6.088C6.90412 6 6.50413 5.008 6.33613 4.616C6.17613 4.232 6.01612 4.28 5.88812 4.272C5.77612 4.272 5.64812 4.264 5.51212 4.264Z"/>
</svg>
